<svg xmlns="http://www.w3.org/2000/svg" xmlns:xlink="http://www.w3.org/1999/xlink" width="46" height="46" viewBox="0 0 46 46">
  <defs>
    <filter id="Icon_awesome-whatsapp" x="0" y="0" width="46" height="46" filterUnits="userSpaceOnUse">
      <feOffset dy="3" input="SourceAlpha"/>
      <feGaussianBlur stdDeviation="3" result="blur"/>
      <feFlood flood-opacity="0.161"/>
      <feComposite operator="in" in2="blur"/>
      <feComposite in="SourceGraphic"/>
    </filter>
  </defs>
  <g transform="matrix(1, 0, 0, 1, 0, 0)" filter="url(#Icon_awesome-whatsapp)">
    <path id="Icon_awesome-whatsapp-2" data-name="Icon awesome-whatsapp" d="M23.806,11.569A13.879,13.879,0,0,0,1.969,28.313L0,35.5l7.356-1.931a13.833,13.833,0,0,0,6.631,1.688h.006A14.008,14.008,0,0,0,28,21.381,13.93,13.93,0,0,0,23.806,11.569Zm-9.813,21.35a11.512,11.512,0,0,1-5.875-1.606l-.419-.25L3.338,32.206,4.5,27.95l-.275-.437a11.555,11.555,0,1,1,21.431-6.131A11.661,11.661,0,0,1,13.994,32.919Zm6.325-8.638c-.344-.175-2.05-1.012-2.369-1.125s-.55-.175-.781.175-.894,1.125-1.1,1.362-.406.263-.75.088A9.437,9.437,0,0,1,10.6,20.656c-.356-.613.356-.569,1.019-1.894a.643.643,0,0,0-.031-.606c-.088-.175-.781-1.881-1.069-2.575-.281-.675-.569-.581-.781-.594s-.431-.013-.662-.013a1.284,1.284,0,0,0-.925.431A3.9,3.9,0,0,0,6.938,18.3,6.792,6.792,0,0,0,8.35,21.888a15.492,15.492,0,0,0,5.925,5.237c2.2.95,3.062,1.031,4.163.869a3.551,3.551,0,0,0,2.337-1.65,2.9,2.9,0,0,0,.2-1.65C20.894,24.538,20.663,24.45,20.319,24.281Z" transform="translate(9 -1.5)" fill="#fff"/>
  </g>
</svg>
