<svg xmlns="http://www.w3.org/2000/svg" xmlns:xlink="http://www.w3.org/1999/xlink" width="46" height="46" viewBox="0 0 46 46">
  <defs>
    <filter id="Icon_awesome-instagram" x="0" y="0" width="46" height="46" filterUnits="userSpaceOnUse">
      <feOffset dy="3" input="SourceAlpha"/>
      <feGaussianBlur stdDeviation="3" result="blur"/>
      <feFlood flood-opacity="0.161"/>
      <feComposite operator="in" in2="blur"/>
      <feComposite in="SourceGraphic"/>
    </filter>
  </defs>
  <g transform="matrix(1, 0, 0, 1, 0, 0)" filter="url(#Icon_awesome-instagram)">
    <path id="Icon_awesome-instagram-2" data-name="Icon awesome-instagram" d="M13.986,14.28a7.179,7.179,0,1,0,7.177,7.179A7.167,7.167,0,0,0,13.986,14.28Zm0,11.846a4.667,4.667,0,1,1,4.666-4.667A4.675,4.675,0,0,1,13.986,26.126Zm9.145-12.14a1.674,1.674,0,1,1-1.674-1.674A1.67,1.67,0,0,1,23.13,13.986Zm4.754,1.7a8.287,8.287,0,0,0-2.261-5.867,8.338,8.338,0,0,0-5.865-2.262c-2.311-.131-9.239-.131-11.55,0A8.326,8.326,0,0,0,2.342,9.813,8.315,8.315,0,0,0,.081,15.68c-.131,2.312-.131,9.241,0,11.552A8.287,8.287,0,0,0,2.342,33.1a8.349,8.349,0,0,0,5.865,2.262c2.311.131,9.239.131,11.55,0A8.283,8.283,0,0,0,25.623,33.1a8.342,8.342,0,0,0,2.261-5.867C28.015,24.92,28.015,18,27.884,15.686ZM24.9,29.712a4.725,4.725,0,0,1-2.661,2.662c-1.843.731-6.215.562-8.252.562s-6.415.162-8.252-.562a4.725,4.725,0,0,1-2.661-2.662c-.731-1.843-.562-6.217-.562-8.253s-.162-6.417.562-8.253a4.725,4.725,0,0,1,2.661-2.662c1.843-.731,6.215-.562,8.252-.562s6.415-.162,8.252.562A4.725,4.725,0,0,1,24.9,13.205c.731,1.843.562,6.217.562,8.253S25.629,27.876,24.9,29.712Z" transform="translate(9.02 -1.46)" fill="#fff"/>
  </g>
</svg>
